<svg width="30" height="30" viewBox="0 0 30 30" fill="none" xmlns="http://www.w3.org/2000/svg">
<rect width="30" height="30" rx="10" fill="#009C41"/>
<path d="M7.90078 21.9886L7.90499 21.9745C7.95296 21.8146 7.99407 21.654 8.03573 21.4912C8.06092 21.3928 8.08631 21.2935 8.11354 21.1932C8.18476 20.9309 8.26678 20.6686 8.38566 20.4239L8.38571 20.4238C9.15893 18.8367 10.4131 17.9836 12.0993 17.9038C12.295 17.8942 12.4594 17.9289 12.5795 18.0237C12.7018 18.1202 12.7604 18.2648 12.7732 18.4356L12.7733 18.436C12.7861 18.6151 12.7442 18.7745 12.6321 18.8922C12.5214 19.0084 12.3565 19.0689 12.1542 19.082L12.1541 19.082C11.4877 19.1245 10.9181 19.3155 10.4464 19.6535C9.97459 19.9917 9.59514 20.4809 9.31549 21.1282L9.31546 21.1283C9.16254 21.4815 9.09438 21.8927 9.04878 22.2986C9.02025 22.554 9.05618 22.6947 9.12762 22.7742C9.19908 22.8537 9.3315 22.9004 9.57121 22.9004H9.57125C12.7465 22.9015 15.922 22.9015 19.0973 22.9015C19.3125 22.9015 19.5277 22.9016 19.7427 22.9017C20.3161 22.9021 20.889 22.9024 21.462 22.9004M7.90078 21.9886L21.4624 23.0004M7.90078 21.9886V22.0032C7.90078 22.2413 7.90078 22.4788 7.9 22.7153L7.89996 22.7269L7.90261 22.7383C7.9858 23.0949 8.13352 23.3892 8.348 23.6179C8.56267 23.8468 8.8397 24.0051 9.17377 24.0965L9.18672 24.1H9.20014H9.22475H9.24936H9.27397H9.29858H9.32319H9.3478H9.37241H9.39702H9.42163H9.44624H9.47085H9.49546H9.52007H9.54468H9.56928H9.59389H9.6185H9.64311H9.66772H9.69233H9.71694H9.74155H9.76616H9.79077H9.81538H9.83999H9.8646H9.88921H9.91382H9.93842H9.96303H9.98764H10.0123H10.0369H10.0615H10.0861H10.1107H10.1353H10.1599H10.1845H10.2091H10.2337H10.2583H10.283H10.3076H10.3322H10.3568H10.3814H10.406H10.4306H10.4552H10.4798H10.5044H10.529H10.5537H10.5783H10.6029H10.6275H10.6521H10.6767H10.7013H10.7259H10.7505H10.7751H10.7998H10.8244H10.849H10.8736H10.8982H10.9228H10.9474H10.972H10.9966H11.0212H11.0458H11.0705H11.0951H11.1197H11.1443H11.1689H11.1935H11.2181H11.2427H11.2673H11.2919H11.3165H11.3412H11.3658H11.3904H11.415H11.4396H11.4642H11.4888H11.5134H11.538H11.5626H11.5872H11.6119H11.6365H11.6611H11.6857H11.7103H11.7349H11.7595H11.7841H11.8087H11.8333H11.858H11.8826H11.9072H11.9318H11.9564H11.981H12.0056H12.0302H12.0548H12.0794H12.104H12.1287H12.1533H12.1779H12.2025H12.2271H12.2517H12.2763H12.3009H12.3255H12.3501H12.3747H12.3994H12.424H12.4486H12.4732H12.4978H12.5224H12.547H12.5716H12.5962H12.6208H12.6454H12.6701H12.6947H12.7193H12.7439H12.7685H12.7931H12.8177H12.8423H12.8669H12.8915H12.9162H12.9408H12.9654H12.99H13.0146H13.0392H13.0638H13.0884H13.113H13.1376H13.1622H13.1869H13.2115H13.2361H13.2607H13.2853H13.3099H13.3345H13.3591H13.3837H13.4083H13.4329H13.4576H13.4822H13.5068H13.5314H13.556H13.5806H13.6052H13.6298H13.6544H13.679H13.7036H13.7283H13.7529H13.7775H13.8021H13.8267H13.8513H13.8759H13.9005H13.9251H13.9497H13.9744H13.999H14.0236H14.0482H14.0728H14.0974H14.122H14.1466H14.1712H14.1958H14.2204H14.2451H14.2697H14.2943H14.3189H14.3435H14.3681H14.3927H14.4173H14.4419H14.4665H14.4911H14.5158H14.5404H14.565H14.5896H14.6142H14.6388H14.6634H14.688H14.7126H14.7372H14.7619H14.7865H14.8111H14.8357H14.8603H14.8849H14.9095H14.9341H14.9587H14.9833H15.0079H15.0326H15.0572H15.0818H15.1064H15.131H15.1556H15.1802H15.2048H15.2294H15.254H15.2786H15.3033H15.3279H15.3525H15.3771H15.4017H15.4263H15.4509H15.4755H15.5001H15.5247H15.5493H15.574H15.5986H15.6232H15.6478H15.6724H15.697H15.7216H15.7462H15.7708H15.7954H15.8201H15.8447H15.8693H15.8939H15.9185H15.9431H15.9677H15.9923H16.0169H16.0415H16.0661H16.0908H16.1154H16.14H16.1646H16.1892H16.2138H16.2384H16.263H16.2876H16.3122H16.3368H16.3615H16.3861H16.4107H16.4353H16.4599H16.4845H16.5091H16.5337H16.5583H16.5829H16.6075H16.6322H16.6568H16.6814H16.706H16.7306H16.7552H16.7798H16.8044H16.829H16.8536H16.8783H16.9029H16.9275H16.9521H16.9767H17.0013H17.0259H17.0505H17.0751H17.0997H17.1243H17.149H17.1736H17.1982H17.2228H17.2474H17.272H17.2966H17.3212H17.3458H17.3704H17.395H17.4197H17.4443H17.4689H17.4935H17.5181H17.5427H17.5673H17.5919H17.6165H17.6411H17.6657H17.6904H17.715H17.7396H17.7642H17.7888H17.8134H17.838H17.8626H17.8872H17.9118H17.9365H17.9611H17.9857H18.0103H18.0349H18.0595H18.0841H18.1087H18.1333H18.1579H18.1825H18.2072H18.2318H18.2564H18.281H18.3056H18.3302H18.3548H18.3794H18.404H18.4286H18.4532H18.4779H18.5025H18.5271H18.5517H18.5763H18.6009H18.6255H18.6501H18.6747H18.6993H18.724H18.7486H18.7732H18.7978H18.8224H18.847H18.8716H18.8962H18.9208H18.9454H18.97H18.9947H19.0193H19.0439H19.0685H19.0931H19.1177H19.1423H19.1669H19.1915H19.2161H19.2407H19.2654H19.29H19.3146H19.3392H19.3638H19.3884H19.413H19.4376H19.4622H19.4868H19.5114H19.5361H19.5607H19.5853H19.6099H19.6345H19.6591H19.6837H19.7083H19.7329H19.7575H19.7822H19.8068H19.8314H19.856H19.8806H19.9052H19.9298H19.9544H19.979H20.0036H20.0282H20.0529H20.0775H20.1021H20.1267H20.1513H20.1759H20.2005H20.2251H20.2497H20.2743H20.2989H20.3236H20.3482H20.3728H20.3974H20.422H20.4466H20.4712H20.4958H20.5204H20.545H20.5696H20.5943H20.6189H20.6435H20.6681H20.6927H20.7173H20.7419H20.7665H20.7911H20.8157H20.8404H20.865H20.8896H20.9142H20.9388H20.9634H20.988H21.0126H21.0372H21.0618H21.0864H21.1111H21.1357H21.1603H21.1849H21.2095H21.2341H21.2587H21.2833H21.3079H21.3325H21.3571H21.3818H21.4064H21.431H21.4556H21.4802H21.5048H21.5294H21.554H21.5786H21.6032H21.6278H21.6525H21.6771H21.7017H21.7263H21.7509H21.7755H21.8001H21.8135L21.8265 24.0965C22.1604 24.0051 22.4376 23.8468 22.6524 23.6179C22.867 23.3892 23.0147 23.0949 23.0974 22.7382L23.1 22.727V22.7156V22.7142V22.7128V22.7114V22.7101V22.7087V22.7073V22.7059V22.7045V22.7031V22.7017V22.7003V22.699V22.6976V22.6962V22.6948V22.6934V22.692V22.6906V22.6892V22.6879V22.6865V22.6851V22.6837V22.6823V22.6809V22.6795V22.6782V22.6768V22.6754V22.674V22.6726V22.6712V22.6698V22.6684V22.667V22.6657V22.6643V22.6629V22.6615V22.6601V22.6587V22.6573V22.6559V22.6546V22.6532V22.6518V22.6504V22.649V22.6476V22.6462V22.6448V22.6434V22.6421V22.6407V22.6393V22.6379V22.6365V22.6351V22.6337V22.6323V22.6309V22.6296V22.6282V22.6268V22.6254V22.624V22.6226V22.6212V22.6198V22.6184V22.6171V22.6157V22.6143V22.6129V22.6115V22.6101V22.6087V22.6073V22.6059V22.6046V22.6032V22.6018V22.6004V22.599V22.5976V22.5962V22.5948V22.5934V22.592V22.5907V22.5893V22.5879V22.5865V22.5851V22.5837V22.5823V22.5809V22.5795V22.5781V22.5768V22.5754V22.574V22.5726V22.5712V22.5698V22.5684V22.567V22.5656V22.5642V22.5629V22.5615V22.5601V22.5587V22.5573V22.5559V22.5545V22.5531V22.5517V22.5503V22.5489V22.5476V22.5462V22.5448V22.5434V22.542V22.5406V22.5392V22.5378V22.5364V22.535V22.5336V22.5323V22.5309V22.5295V22.5281V22.5267V22.5253V22.5239V22.5225V22.5211V22.5197V22.5183V22.517V22.5156V22.5142V22.5128V22.5114V22.51V22.5086V22.5072V22.5058V22.5044V22.503V22.5017V22.5003V22.4989V22.4975V22.4961V22.4947V22.4933V22.4919V22.4905V22.4891V22.4877V22.4863V22.485V22.4836V22.4822V22.4808V22.4794V22.478V22.4766V22.4752V22.4738V22.4724V22.471V22.4696V22.4682V22.4669V22.4655V22.4641V22.4627V22.4613V22.4599V22.4585V22.4571V22.4557V22.4543V22.4529V22.4515V22.4502V22.4488V22.4474V22.446V22.4446V22.4432V22.4418V22.4404V22.439V22.4376V22.4362V22.4348V22.4334V22.4321V22.4307V22.4293V22.4279V22.4265V22.4251V22.4237V22.4223V22.4209V22.4195V22.4181V22.4167V22.4153V22.4139V22.4126V22.4112V22.4098V22.4084V22.407V22.4056V22.4042V22.4028V22.4014V22.4V22.3986V22.3972V22.3958V22.3945V22.3931V22.3917V22.3903V22.3889V22.3875V22.3861V22.3847V22.3833V22.3819V22.3805V22.3791V22.3777V22.3763V22.375V22.3736V22.3722V22.3708V22.3694V22.368V22.3666V22.3652V22.3638V22.3624V22.361V22.3596V22.3582V22.3568V22.3555V22.3541V22.3527V22.3513V22.3499V22.3485V22.3471V22.3457V22.3443V22.3429V22.3415V22.3401V22.3387V22.3373V22.3359V22.3346V22.3332V22.3318V22.3304V22.329V22.3276V22.3262V22.3248V22.3234V22.322V22.3206V22.3192V22.3178V22.3164V22.3151V22.3137V22.3123V22.3109V22.3095V22.3081V22.3067V22.3053V22.3039V22.3025V22.3011V22.2997V22.2983V22.2969V22.2956V22.2942V22.2928V22.2914V22.29V22.2886V22.2872V22.2858V22.2844V22.283V22.2816V22.2802V22.2788V22.2774V22.276V22.2747V22.2733V22.2719V22.2705V22.2691V22.2677V22.2663V22.2649V22.2635V22.2621V22.2607V22.2593V22.2579V22.2565V22.2552V22.2538V22.2524V22.251V22.2496V22.2482V22.2468V22.2454V22.244V22.2426V22.2412V22.2398V22.2384V22.237V22.2357V22.2343V22.2329V22.2315V22.2301V22.2287V22.2273V22.2259V22.2245V22.2231V22.2217V22.2203V22.2189V22.2175V22.2162V22.2148V22.2134V22.212V22.2106V22.2092V22.2078V22.2064V22.205V22.2036V22.2022V22.2008V22.1994V22.198V22.1967V22.1953V22.1939V22.1925V22.1911V22.1897V22.1883V22.1869V22.1855V22.1841V22.1827V22.1813V22.1799V22.1785V22.1772V22.1758V22.1744V22.173V22.1716V22.1702V22.1688V22.1674V22.166V22.1646V22.1632V22.1618V22.1604V22.1591V22.1577V22.1563V22.1549V22.1535V22.1521V22.1507V22.1493V22.1479V22.1465V22.1451V22.1437V22.1423V22.141V22.1396V22.1382V22.1368V22.1354V22.134V22.1326V22.1312V22.1298V22.1284V22.127V22.1256V22.1243V22.1229V22.1215V22.1201V22.1187V22.1173V22.1159V22.1145V22.1131V22.1117V22.1103V22.1089V22.1076V22.1062V22.1048V22.1034V22.102V22.1006V22.0992V22.0978V22.0964V22.095V22.0936V22.0922V22.0909V22.0895V22.0881V22.0867V22.0853V22.0839V22.0825V22.0811V22.0797V22.0783V22.0769V22.0755V22.0742V22.0728V22.0714V22.07V22.0686V22.0672V22.0658V22.0644V22.063V22.0616V22.0602V22.0589V22.0575V22.0561V22.0547V22.0533V22.0519V22.0505V22.0491V22.0477V22.0463V22.045V22.0436V22.0422V22.0408V22.0394V22.038V22.0366V22.0352V22.0338V22.0324V22.031V22.0297V22.0283V22.0269V22.0255V22.0241V22.0227V22.0213V22.0199V22.0185V22.0171V22.0158V22.0144V22.013V22.0116V22.0102V22.0088V22.0074V22.006V22.0046V22.0032V21.9924L23.0977 21.9819L23.0835 21.9172C23.0435 21.7343 23.0035 21.5512 22.9619 21.3676L22.9619 21.3676C22.5124 19.3858 20.7536 17.8898 18.8629 17.9001L18.8634 18.0001M7.90078 21.9886L18.8634 18.0001M21.462 22.9004C21.462 22.9004 21.4621 22.9004 21.4621 22.9004L21.4624 23.0004M21.462 22.9004C21.4619 22.9004 21.4619 22.9004 21.4618 22.9004L21.4624 23.0004M21.462 22.9004C21.6759 22.899 21.7938 22.8528 21.8612 22.7763C21.9308 22.6973 21.9692 22.5613 21.9615 22.3253L21.9615 22.3252C21.9094 20.6651 20.6102 19.2255 19.0775 19.1025M21.4624 23.0004C21.9114 22.9976 22.0772 22.808 22.0615 22.3221C22.0079 20.6162 20.6737 19.1297 19.0847 19.0027M19.0775 19.1025L19.0784 19.1025L19.0847 19.0027M19.0775 19.1025C19.0773 19.1024 19.077 19.1024 19.0767 19.1024L19.0847 19.0027M19.0775 19.1025L19.0674 19.1018C18.9834 19.0966 18.895 19.0911 18.8066 19.0786M19.0847 19.0027L19.0749 19.0021C18.9896 18.9968 18.9044 18.9915 18.8197 18.9795M12.1477 18.9822C10.7833 19.0691 9.79478 19.7665 9.22369 21.0886C9.06455 21.4561 8.9952 21.8798 8.9494 22.2875C8.89066 22.813 9.07775 23.0004 9.57121 23.0004L12.1477 18.9822ZM12.1477 18.9822C12.5224 18.9579 12.6963 18.7622 12.6735 18.4431L12.1477 18.9822ZM18.8197 18.9795L18.8075 19.0787C18.8072 19.0787 18.8069 19.0787 18.8066 19.0786M18.8197 18.9795C18.4745 18.9371 18.3053 18.7514 18.3283 18.4431M18.8197 18.9795L18.8057 19.0785C18.806 19.0785 18.8063 19.0786 18.8066 19.0786M18.8066 19.0786C18.6201 19.0556 18.466 18.9921 18.3621 18.8785C18.2565 18.7631 18.2156 18.6101 18.2286 18.4358M18.3283 18.4431L18.2286 18.4358M18.3283 18.4431C18.35 18.1484 18.5265 18.0012 18.8634 18.0001M18.3283 18.4431L18.2286 18.4357C18.2286 18.4357 18.2286 18.4357 18.2286 18.4358M18.2286 18.4358C18.2408 18.2694 18.2984 18.1303 18.4138 18.0345C18.5272 17.9404 18.6817 17.9006 18.8631 17.9001L18.8634 18.0001" fill="white" stroke="white" stroke-width="0.2"/>
<path d="M15.9151 5.90271L15.9037 5.9H15.892H15.8904H15.8889H15.8874H15.8858H15.8843H15.8828H15.8812H15.8797H15.8782H15.8766H15.8751H15.8736H15.8721H15.8705H15.869H15.8675H15.8659H15.8644H15.8629H15.8613H15.8598H15.8583H15.8567H15.8552H15.8537H15.8522H15.8506H15.8491H15.8476H15.846H15.8445H15.843H15.8414H15.8399H15.8384H15.8368H15.8353H15.8338H15.8323H15.8307H15.8292H15.8277H15.8261H15.8246H15.8231H15.8215H15.82H15.8185H15.8169H15.8154H15.8139H15.8124H15.8108H15.8093H15.8078H15.8062H15.8047H15.8032H15.8016H15.8001H15.7986H15.797H15.7955H15.794H15.7925H15.7909H15.7894H15.7879H15.7863H15.7848H15.7833H15.7817H15.7802H15.7787H15.7771H15.7756H15.7741H15.7725H15.771H15.7695H15.768H15.7664H15.7649H15.7634H15.7618H15.7603H15.7588H15.7572H15.7557H15.7542H15.7526H15.7511H15.7496H15.748H15.7465H15.745H15.7435H15.7419H15.7404H15.7389H15.7373H15.7358H15.7343H15.7327H15.7312H15.7297H15.7281H15.7266H15.7251H15.7235H15.722H15.7205H15.719H15.7174H15.7159H15.7144H15.7128H15.7113H15.7098H15.7082H15.7067H15.7052H15.7036H15.7021H15.7006H15.699H15.6975H15.696H15.6945H15.6929H15.6914H15.6899H15.6883H15.6868H15.6853H15.6837H15.6822H15.6807H15.6791H15.6776H15.6761H15.6745H15.673H15.6715H15.6699H15.6684H15.6669H15.6654H15.6638H15.6623H15.6608H15.6592H15.6577H15.6562H15.6546H15.6531H15.6516H15.65H15.6485H15.647H15.6454H15.6439H15.6424H15.6409H15.6393H15.6378H15.6363H15.6347H15.6332H15.6317H15.6301H15.6286H15.6271H15.6255H15.624H15.6225H15.6209H15.6194H15.6179H15.6164H15.6148H15.6133H15.6118H15.6102H15.6087H15.6072H15.6056H15.6041H15.6026H15.601H15.5995H15.598H15.5964H15.5949H15.5934H15.5919H15.5903H15.5888H15.5873H15.5857H15.5842H15.5827H15.5811H15.5796H15.5781H15.5765H15.575H15.5735H15.5719H15.5704H15.5689H15.5674H15.5658H15.5643H15.5628H15.5612H15.5597H15.5582H15.5566H15.5551H15.5536H15.552H15.5505H15.549H15.5474H15.5459H15.5444H15.5429H15.5413H15.5398H15.5383H15.5367H15.5352H15.5337H15.5321H15.5306H15.5291H15.5275H15.526H15.5245H15.5229H15.5214H15.5199H15.5184H15.5168H15.5153H15.5138H15.5122H15.5107H15.5092H15.5076H15.5061H15.5046H15.503H15.5015H15.5H15.4985H15.4969H15.4954H15.4939H15.4923H15.4908H15.4893H15.4877H15.4862H15.4847H15.4831H15.4816H15.4801H15.4786H15.477H15.4755H15.474H15.4724H15.4709H15.4694H15.4678H15.4663H15.4648H15.4632H15.4617H15.4602H15.4587H15.4571H15.4556H15.4541H15.4525H15.451H15.4495H15.4479H15.4464H15.4449H15.4434H15.4418H15.4403H15.4388H15.4372H15.4357H15.4342H15.4326H15.4311H15.4296H15.428H15.4265H15.425H15.4235H15.4219H15.4204H15.4189H15.4173H15.4158H15.4143H15.4127H15.4112H15.4097H15.4082H15.4066H15.4051H15.4036H15.402H15.4005H15.399H15.3974H15.3959H15.3944H15.3929H15.3913H15.3898H15.3883H15.3867H15.3852H15.3837H15.3821H15.3806H15.3791H15.3776H15.376H15.3745H15.373H15.3714H15.3699H15.3684H15.3668H15.3653H15.3638H15.3623H15.3607H15.3592H15.3577H15.3561H15.3546H15.3531H15.3516H15.35H15.3485H15.347H15.3454H15.3439H15.3424H15.3408H15.3393H15.3378H15.3363H15.3347H15.3332H15.3317H15.3301H15.3286H15.3271H15.3256H15.324H15.3225H15.321H15.3194H15.3179H15.3164H15.3148H15.3133H15.3118H15.3103H15.3087H15.3072H15.3057H15.3041H15.3026H15.3011H15.2996H15.298H15.2965H15.295H15.2934H15.2919H15.2904H15.2889H15.2873H15.2858H15.2843H15.2827H15.2812H15.2797H15.2782H15.2766H15.2751H15.2736H15.272H15.2705H15.269H15.2675H15.2659H15.2644H15.2629H15.2613H15.2598H15.2583H15.2568H15.2552H15.2537H15.2522H15.2506H15.2491H15.2476H15.2461H15.2445H15.243H15.2415H15.2399H15.2384H15.2369H15.2354H15.2338H15.2323H15.2308H15.2293H15.2277H15.2262H15.2247H15.2231H15.2216H15.2201H15.2186H15.217H15.2155H15.214H15.2125H15.2109H15.2094H15.2079H15.2063H15.2048H15.2033H15.2018H15.2002H15.1987H15.1972H15.1956H15.1941H15.1926H15.1911H15.1895H15.188H15.1865H15.185H15.1834H15.1819H15.1804H15.1789H15.1773H15.1758H15.1743H15.1727H15.1712H15.1697H15.1682H15.1666H15.1651H15.1636H15.1621H15.1605H15.159H15.1575H15.1559H15.1544H15.1529H15.1514H15.1498H15.1483H15.1468H15.1453H15.1437H15.1422H15.1407H15.1392H15.1376H15.1361H15.1346H15.1331H15.1315H15.13H15.1285H15.127H15.1254H15.1239H15.1224H15.1208H15.1193H15.1178H15.1163H15.1147H15.1132H15.1117H15.1102H15.1086H15.0883L15.0695 5.90797C15.0512 5.91575 15.0298 5.92689 15.014 5.93507C15.0082 5.93812 15.0031 5.94076 14.9992 5.94266C14.9799 5.95226 14.9697 5.95557 14.9633 5.95651L14.9633 5.95651C13.9361 6.10789 13.11 6.65273 12.4305 7.46502C11.4638 8.62038 10.9532 10.1777 10.9039 11.7537C10.8547 13.3299 11.2665 14.9333 12.1557 16.182C13.0592 17.4519 14.2762 18.0984 15.5009 18.1C16.7257 18.1016 17.9402 17.4579 18.8383 16.184L18.7565 16.1264L18.8383 16.184C19.956 14.5983 20.2836 12.7803 20.0073 10.841L20.0073 10.841C19.772 9.1922 19.0992 7.79138 17.8423 6.76064L17.8423 6.76061C17.2607 6.28418 16.5934 6.06383 15.9151 5.90271ZM18.1686 9.02199L18.1686 9.02202C18.676 9.93431 18.8914 10.9352 18.9177 12.068C18.8708 13.4805 18.5121 14.8186 17.523 15.8654C16.8863 16.538 16.1304 16.8487 15.3911 16.8189C14.6515 16.7891 13.9156 16.4178 13.3205 15.7016C12.5227 14.7403 12.1093 13.4189 12.0917 12.0855C12.074 10.7521 12.4524 9.41736 13.2247 8.42966L13.2248 8.42961C13.9548 7.49476 14.8888 7.10602 15.7837 7.2123C16.6802 7.31876 17.5586 7.9246 18.1686 9.02199Z" fill="white" stroke="white" stroke-width="0.2"/>
</svg>
